<svg width="703" height="184" viewBox="0 0 703 184" fill="none" xmlns="http://www.w3.org/2000/svg">
<path d="M46.6034 77.1989V27.1489H54.8634L77.2634 27.0789C86.3167 27.0789 93.3401 29.2022 98.3334 33.4489C103.327 37.6955 105.823 43.9255 105.823 52.1389C105.823 60.3522 103.327 66.5822 98.3334 70.8289C93.3401 75.0755 86.3167 77.1989 77.2634 77.1989H46.6034ZM76.4934 36.1789H57.8034V68.0989H76.4934C82.3734 68.0989 86.8301 66.8155 89.8634 64.2489C92.8967 61.6822 94.4134 57.6455 94.4134 52.1389C94.4134 46.5855 92.8967 42.5489 89.8634 40.0289C86.8301 37.4622 82.3734 36.1789 76.4934 36.1789ZM115.644 77.1989V27.1489H170.524V36.2489H126.844V47.3089H166.464V56.4089H126.844V68.0989H170.524V77.1989H115.644ZM180.992 77.1989V27.1489H222.922C228.102 27.1489 232.116 28.4555 234.962 31.0689C237.856 33.6822 239.302 37.6489 239.302 42.9689C239.302 48.2889 237.856 52.2555 234.962 54.8689C232.116 57.4822 228.102 58.7889 222.922 58.7889H192.192V77.1989H180.992ZM221.592 36.2489H192.192V49.6189L221.592 49.6889C223.646 49.6889 225.209 49.1755 226.282 48.1489C227.402 47.1222 227.962 45.3955 227.962 42.9689C227.962 40.4955 227.402 38.7689 226.282 37.7889C225.209 36.7622 223.646 36.2489 221.592 36.2489ZM274.346 77.5489C265.432 77.5489 258.526 75.4255 253.626 71.1789C248.726 66.8855 246.276 60.5389 246.276 52.1389C246.276 43.7855 248.726 37.4855 253.626 33.2389C258.526 28.9455 265.596 26.7989 274.836 26.7989H287.436C296.676 26.7989 303.746 28.9455 308.646 33.2389C313.546 37.4855 315.996 43.7855 315.996 52.1389C315.996 60.5389 313.546 66.8855 308.646 71.1789C303.746 75.4255 296.792 77.5489 287.786 77.5489H274.346ZM275.606 35.8989C270.426 35.8989 266.389 36.8322 263.496 38.6989C260.602 40.5655 258.782 43.5289 258.036 47.5889H304.236C303.489 43.5289 301.669 40.5655 298.776 38.6989C295.882 36.8322 291.846 35.8989 286.666 35.8989H275.606ZM275.816 68.4489H286.666C291.892 68.4489 295.929 67.5155 298.776 65.6489C301.669 63.7822 303.489 60.7955 304.236 56.6889H258.036C258.782 60.7955 260.602 63.7822 263.496 65.6489C266.389 67.5155 270.496 68.4489 275.816 68.4489ZM325.772 77.1989V27.1489H336.972V68.0989H373.582V77.1989H325.772ZM383.396 77.1989V27.1489H394.736L430.156 63.1289V27.1489H441.356V77.1989H430.016L394.596 41.1489V77.1989H383.396ZM449.74 77.1989L472.28 27.1489H489.57L512.11 77.1989H499.93L495.17 66.6289H466.68L461.92 77.1989H449.74ZM470.74 57.5289H491.11L481.38 35.8989H480.47L470.74 57.5289Z" fill="white"/>
<path d="M368.26 157.35C359.72 157.35 353.047 155.227 348.24 150.98C343.48 146.687 341.1 140.34 341.1 131.94C341.1 123.587 343.527 117.287 348.38 113.04C353.28 108.747 360.373 106.6 369.66 106.6H396.26V115.7H370.43C364.317 115.7 359.79 116.983 356.85 119.55C353.957 122.117 352.51 126.247 352.51 131.94C352.51 137.353 353.793 141.367 356.36 143.98C358.927 146.547 362.683 147.947 367.63 148.18V128.72H398.99V157.35H368.26ZM378.13 148.25H387.79V137.82H378.13V148.25ZM407.373 157L429.913 106.95H447.203L469.743 157H457.563L452.803 146.43H424.313L419.553 157H407.373ZM428.373 137.33H448.743L439.013 115.7H438.103L428.373 137.33ZM478.152 157V106.95H487.532L510.702 123.19H511.052L534.222 106.95H543.602V157H532.402V120.95L516.512 131.59V157H505.312V131.59L489.352 120.95V157H478.152ZM556.216 157V106.95H611.096V116.05H567.416V127.11H607.036V136.21H567.416V147.9H611.096V157H556.216ZM619.955 157.35V148.25L660.205 148.32C662.258 148.32 663.822 147.853 664.895 146.92C666.015 145.94 666.575 144.377 666.575 142.23C666.575 140.083 666.015 138.543 664.895 137.61C663.822 136.63 662.258 136.14 660.205 136.14H635.145C629.965 136.14 625.928 134.903 623.035 132.43C620.188 129.91 618.765 126.223 618.765 121.37C618.765 116.517 620.188 112.853 623.035 110.38C625.928 107.86 629.965 106.6 635.145 106.6H674.485V115.7L636.335 115.63C634.328 115.63 632.765 116.097 631.645 117.03C630.525 117.917 629.965 119.363 629.965 121.37C629.965 123.377 630.525 124.847 631.645 125.78C632.765 126.667 634.328 127.11 636.335 127.11H661.395C666.575 127.11 670.588 128.393 673.435 130.96C676.328 133.48 677.775 137.237 677.775 142.23C677.775 147.177 676.328 150.933 673.435 153.5C670.588 156.067 666.575 157.35 661.395 157.35H619.955Z" fill="#FAD515"/>
</svg>
